<svg width="20" height="20" viewBox="0 0 20 20" fill="none" xmlns="http://www.w3.org/2000/svg">
<path fill-rule="evenodd" clip-rule="evenodd" d="M15.8928 15.8916C13.346 18.4386 9.57481 18.9889 6.48868 17.5617C6.03309 17.3783 5.65957 17.23 5.30447 17.23C4.3154 17.2359 3.0843 18.1949 2.44446 17.5558C1.80463 16.9159 2.76438 15.6838 2.76438 14.6888C2.76438 14.3337 2.62201 13.9668 2.4386 13.5103C1.01069 10.4247 1.56175 6.65224 4.10855 4.10601C7.35966 0.853698 12.6417 0.853699 15.8928 4.10517C19.1498 7.36251 19.1439 12.6401 15.8928 15.8916Z" stroke="white" stroke-width="1.5" stroke-linecap="round" stroke-linejoin="round"/>
<path d="M13.2828 10.3442H13.2903" stroke="white" stroke-width="2" stroke-linecap="round" stroke-linejoin="round"/>
<path d="M9.942 10.3442H9.9495" stroke="white" stroke-width="2" stroke-linecap="round" stroke-linejoin="round"/>
<path d="M6.60116 10.3442H6.60866" stroke="white" stroke-width="2" stroke-linecap="round" stroke-linejoin="round"/>
</svg>
