<svg width="21" height="21" viewBox="0 0 21 21" fill="none" xmlns="http://www.w3.org/2000/svg">
<path fill-rule="evenodd" clip-rule="evenodd" d="M5.39131 11.184C8.76045 11.184 8.91031 12.3267 8.91031 14.703C8.91031 15.8937 8.91031 16.7408 8.4102 17.3609C7.83474 18.0755 6.78732 18.222 5.39131 18.222C3.99531 18.222 2.94789 18.0755 2.37243 17.3609C1.87231 16.7408 1.87231 15.8945 1.87231 14.7237L2.49331 14.703H1.87231C1.87231 12.3267 2.02218 11.184 5.39131 11.184ZM14.4993 11.184C17.8684 11.184 18.0183 12.3267 18.0183 14.703C18.0183 15.8937 18.0183 16.7408 17.5182 17.3609C16.9427 18.0755 15.8953 18.222 14.4993 18.222C13.1033 18.222 12.0559 18.0755 11.4804 17.3609C10.9803 16.7408 10.9803 15.8945 10.9803 14.7237L11.6013 14.703H10.9803C10.9803 12.3267 11.1302 11.184 14.4993 11.184ZM5.56202 12.4264L5.39131 12.426C3.23108 12.426 3.1203 12.5811 3.11462 14.3942L3.11497 15.1006C3.11889 15.8218 3.14637 16.3427 3.3387 16.5826C3.55812 16.8542 4.20976 16.98 5.39131 16.98C6.57287 16.98 7.22451 16.8534 7.44393 16.5818C7.66831 16.3027 7.66831 15.6403 7.66831 14.7229C7.66831 12.6528 7.66831 12.4362 5.56202 12.4264ZM14.67 12.4264L14.4993 12.426C12.3391 12.426 12.2283 12.5811 12.2226 14.3942L12.223 15.1006C12.2269 15.8218 12.2544 16.3427 12.4467 16.5826C12.6661 16.8542 13.3178 16.98 14.4993 16.98C15.6809 16.98 16.3325 16.8534 16.5519 16.5818C16.7763 16.3027 16.7763 15.6403 16.7763 14.7229C16.7763 12.6528 16.7763 12.4362 14.67 12.4264ZM5.39131 2.07605C8.76045 2.07605 8.91031 3.21869 8.91031 5.59505C8.91031 6.78571 8.91031 7.63276 8.4102 8.25293C7.83474 8.96749 6.78732 9.11405 5.39131 9.11405C3.99531 9.11405 2.94789 8.96749 2.37243 8.25293C1.87231 7.63276 1.87231 6.78654 1.87231 5.61575L2.49331 5.59505H1.87231C1.87231 3.21869 2.02218 2.07605 5.39131 2.07605ZM14.4993 2.07605C17.8684 2.07605 18.0183 3.21869 18.0183 5.59505C18.0183 6.78571 18.0183 7.63276 17.5182 8.25293C16.9427 8.96749 15.8953 9.11405 14.4993 9.11405C13.1033 9.11405 12.0559 8.96749 11.4804 8.25293C10.9803 7.63276 10.9803 6.78654 10.9803 5.61575L11.6013 5.59505H10.9803C10.9803 3.21869 11.1302 2.07605 14.4993 2.07605ZM5.56202 3.31842L5.39131 3.31805C3.23108 3.31805 3.1203 3.47306 3.11462 5.28625L3.11497 5.99264C3.11889 6.7138 3.14637 7.23473 3.3387 7.47461C3.55812 7.74619 4.20976 7.87205 5.39131 7.87205C6.57287 7.87205 7.22451 7.74537 7.44393 7.47378C7.66831 7.19475 7.66831 6.53235 7.66831 5.61492C7.66831 3.54475 7.66831 3.32817 5.56202 3.31842ZM14.67 3.31842L14.4993 3.31805C12.3391 3.31805 12.2283 3.47306 12.2226 5.28625L12.223 5.99264C12.2269 6.7138 12.2544 7.23473 12.4467 7.47461C12.6661 7.74619 13.3178 7.87205 14.4993 7.87205C15.6809 7.87205 16.3325 7.74537 16.5519 7.47378C16.7763 7.19475 16.7763 6.53235 16.7763 5.61492C16.7763 3.54475 16.7763 3.32817 14.67 3.31842Z" fill="white"/>
</svg>
