<svg width="20" height="20" viewBox="0 0 20 20" fill="none" xmlns="http://www.w3.org/2000/svg">
<path fill-rule="evenodd" clip-rule="evenodd" d="M7.94197 11.5564C10.6404 11.5564 14.2281 11.8603 14.2281 14.4892C14.2281 17.2584 10.0477 17.4246 8.25446 17.4346L7.6034 17.4346C5.69141 17.4247 1.65579 17.2594 1.65579 14.5057C1.65579 11.7334 5.83627 11.567 7.62948 11.557L7.84492 11.5564C7.8785 11.5564 7.91087 11.5564 7.94197 11.5564ZM7.94197 12.7984C5.64096 12.7984 2.89779 13.094 2.89779 14.5057C2.89779 15.6252 4.59519 16.1932 7.94197 16.1932C11.2887 16.1932 12.9861 15.6194 12.9861 14.4892C12.9861 13.3672 11.2887 12.7984 7.94197 12.7984ZM15.4889 11.1696C17.7295 11.505 18.199 12.5425 18.199 13.3531C18.199 13.9567 17.9382 14.7739 16.6937 15.2451C16.6216 15.2724 16.5471 15.2856 16.4734 15.2856C16.2225 15.2856 15.9866 15.1325 15.893 14.8849C15.7713 14.5644 15.9327 14.2051 16.2532 14.0842C16.957 13.8176 16.957 13.4922 16.957 13.3531C16.957 12.8836 16.4014 12.5623 15.306 12.3992C14.9665 12.3479 14.7321 12.0316 14.7827 11.6929C14.834 11.3535 15.1561 11.1258 15.4889 11.1696ZM7.94197 1.65601C10.286 1.65601 12.1938 3.56372 12.1938 5.90779C12.1987 7.03718 11.7607 8.10364 10.9625 8.9068C10.166 9.71079 9.102 10.1554 7.97012 10.1596H7.94197C5.59707 10.1596 3.68936 8.25185 3.68936 5.90779C3.68936 3.56372 5.59707 1.65601 7.94197 1.65601ZM13.8105 2.58651C15.4375 2.85313 16.6182 4.245 16.6182 5.8952C16.6149 7.55534 15.3754 8.98116 13.7343 9.21134C13.7053 9.21548 13.6764 9.21714 13.6474 9.21714C13.3427 9.21714 13.0769 8.99275 13.033 8.68225C12.9858 8.34277 13.2218 8.02813 13.5613 7.98093C14.5946 7.83603 15.3746 6.93931 15.3762 5.89437C15.3762 4.85606 14.6327 3.98004 13.6101 3.81278C13.2715 3.75648 13.0421 3.4377 13.0976 3.09904C13.1531 2.76039 13.4735 2.53269 13.8105 2.58651ZM7.94197 2.89801C6.28183 2.89801 4.93136 4.24847 4.93136 5.90779C4.93136 7.5671 6.28183 8.91757 7.94197 8.91757H7.96764C8.76583 8.91425 9.51765 8.60044 10.0815 8.03161C10.6462 7.46443 10.9551 6.71012 10.9518 5.91027C10.9518 4.24847 9.60128 2.89801 7.94197 2.89801Z" fill="white"/>
</svg>
